<svg width="12" height="16" viewBox="0 0 12 16" fill="none" xmlns="http://www.w3.org/2000/svg">
<path d="M6.363 0C2.133 0 0 3.033 0 5.562C0 7.095 0.581 8.456 1.823 8.963C2.028 9.047 2.21 8.967 2.269 8.742L2.451 8.025C2.512 7.804 2.488 7.725 2.324 7.53C1.965 7.108 1.736 6.558 1.736 5.783C1.736 3.533 3.419 1.519 6.12 1.519C8.512 1.519 9.826 2.982 9.826 4.931C9.826 7.499 8.689 9.665 7.002 9.665C6.07 9.665 5.373 8.895 5.597 7.95C5.865 6.82 6.383 5.603 6.383 4.79C6.383 4.061 5.991 3.454 5.183 3.454C4.231 3.454 3.465 4.438 3.465 5.758C3.465 6.599 3.751 7.167 3.751 7.167L2.605 12.019C2.265 13.459 2.554 15.225 2.58 15.404C2.593 15.508 2.729 15.535 2.79 15.455C2.878 15.34 4.013 13.938 4.397 12.54C4.508 12.144 5.024 10.095 5.024 10.095C5.335 10.684 6.237 11.203 7.199 11.203C10.062 11.203 12.003 8.595 12.003 5.1C12 2.46 9.763 0 6.363 0Z" fill="white"/>
</svg>
