<svg width="20" height="20" viewBox="0 0 20 20" fill="none" xmlns="http://www.w3.org/2000/svg">
<g clip-path="url(#clip0_2605_7097)">
<path d="M13.3668 3.09953C14.3997 3.09953 15.3321 3.52211 15.989 4.20055C16.8062 4.04242 17.5765 3.7543 18.2687 3.35523C18.0009 4.16838 17.4312 4.85055 16.6903 5.28211C17.4153 5.1968 18.1093 5.01055 18.7534 4.73211C18.2706 5.43023 17.6628 6.04492 16.9609 6.53617C16.9674 6.68523 16.9712 6.83586 16.9712 6.98584C16.9712 11.5899 13.3578 16.9002 6.75028 16.9002C4.72216 16.9002 2.83309 16.3215 1.24436 15.3333C1.52858 15.3664 1.81448 15.3829 2.10061 15.3827C3.78342 15.3827 5.33309 14.8261 6.56278 13.8905C4.98997 13.8636 3.66247 12.8552 3.20715 11.4718C3.43015 11.5135 3.65653 11.5346 3.88341 11.5346C4.20997 11.5346 4.52809 11.4924 4.82872 11.4124C3.18559 11.0933 1.94716 9.68488 1.94716 7.99578V7.95111C2.43184 8.21236 2.98528 8.36924 3.57497 8.38736C2.61059 7.76172 1.97653 6.69674 1.97653 5.48766C1.97653 4.84859 2.15405 4.24984 2.46311 3.73703C4.23436 5.84391 6.88124 7.23141 9.86717 7.37734C9.80559 7.12295 9.77374 6.85422 9.77374 6.58391C9.77374 4.65922 11.3822 3.09953 13.3668 3.09953ZM13.3668 1.84961C10.9124 1.84961 8.87903 3.64275 8.56589 5.95963C6.55776 5.55619 4.73151 4.49307 3.41932 2.93338C3.30202 2.79384 3.15561 2.68165 2.99037 2.60467C2.82512 2.52769 2.64504 2.48779 2.46274 2.48777C2.43 2.48778 2.39728 2.48903 2.36464 2.49152C2.1665 2.50739 1.97499 2.5702 1.80594 2.67475C1.63688 2.7793 1.49515 2.92259 1.39245 3.09277C0.956658 3.81586 0.726405 4.64414 0.726491 5.4884C0.726491 6.05184 0.827722 6.60059 1.01962 7.11371C0.815241 7.3409 0.697429 7.63809 0.697429 7.95184V7.99652C0.697429 9.22092 1.18149 10.3571 1.98524 11.2087C1.93899 11.4231 1.9493 11.6475 2.01993 11.8625C2.29714 12.7059 2.80182 13.4328 3.4562 13.9865C3.0168 14.0843 2.56339 14.1337 2.10055 14.1337C1.85587 14.1337 1.61774 14.1203 1.39243 14.0927C1.34243 14.0865 1.29305 14.0843 1.24337 14.0843C0.718366 14.0843 0.241804 14.4152 0.0649285 14.9199C-0.129134 15.473 0.0861981 16.0862 0.583679 16.3959C2.42995 17.5446 4.56243 18.1512 6.74993 18.1512C13.8599 18.1512 18.1368 12.5852 18.2199 7.14836C18.8034 6.66566 19.3188 6.10621 19.7521 5.48523C19.9167 5.26916 20.0056 5.00496 20.0052 4.73336C20.0052 4.30805 19.7924 3.93211 19.4684 3.70615C19.6087 3.22521 19.4487 2.70459 19.0581 2.38646C18.8299 2.20084 18.5502 2.10646 18.269 2.10646C18.0498 2.10626 17.8344 2.16393 17.6446 2.27365C17.2315 2.5118 16.7896 2.70023 16.3243 2.83588C15.4824 2.20244 14.4387 1.84963 13.3668 1.84961Z" fill="white"/>
</g>
<defs>
<clipPath id="clip0_2605_7097">
<rect width="20" height="20" fill="white"/>
</clipPath>
</defs>
</svg>
