<svg width="12" height="25" viewBox="0 0 20 35" fill="none" xmlns="http://www.w3.org/2000/svg">
<path d="M0.764799 0.764798C0.275099 1.25465 4.94927e-07 1.91893 4.94927e-07 2.61158C4.94927e-07 3.30422 0.275099 3.96851 0.764799 4.45836L13.6949 17.3884L0.764799 30.3185C0.288977 30.8111 0.0256887 31.471 0.0316403 32.1559C0.0375918 32.8408 0.312307 33.4959 0.796618 33.9802C1.28093 34.4645 1.93609 34.7393 2.62098 34.7452C3.30587 34.7512 3.9657 34.4879 4.45836 34.0121L19.2352 19.2352C19.7249 18.7454 20 18.0811 20 17.3884C20 16.6958 19.7249 16.0315 19.2352 15.5416L4.45836 0.764798C3.96851 0.275098 3.30422 0 2.61158 0C1.91893 0 1.25465 0.275098 0.764799 0.764798Z" fill="#5B6CEB"/>
</svg>
