<svg width="19" height="19" viewBox="0 0 19 19" fill="none" xmlns="http://www.w3.org/2000/svg">
<path d="M10.6046 11.4865L9.65868 10.8108C9.38841 10.5405 8.983 10.2703 8.983 9.72973C8.983 9.18919 9.38841 8.78378 9.79381 8.37838C10.8749 7.56757 12.0911 6.62162 12.0911 4.59459C12.0911 2.56757 10.8749 1.48649 10.1992 0.945946H11.8208L13.4425 0H7.90192C6.55057 0 4.65868 0.27027 3.17219 1.48649C2.09111 2.43243 1.55057 3.78378 1.55057 5C1.55057 7.02703 3.17219 9.18919 6.01003 9.18919H6.82084C6.68571 9.45946 6.55057 9.72973 6.55057 10.1351C6.55057 10.9459 6.95598 11.4865 7.36138 11.8919C6.14517 12.027 3.983 12.1622 2.22625 13.1081C0.604624 14.0541 0.199219 15.4054 0.199219 16.3514C0.199219 18.3784 2.09111 20.1351 5.87489 20.1351C10.4695 20.1351 12.9019 17.5676 12.9019 15.1351C12.9019 13.3784 11.8208 12.5676 10.6046 11.4865ZM7.22625 8.51351C4.92895 8.51351 3.84787 5.54054 3.84787 3.78378C3.84787 3.10811 3.983 2.43243 4.38841 1.75676C4.79381 1.21622 5.60462 0.810811 6.2803 0.810811C8.44246 0.810811 9.65868 3.78378 9.65868 5.67568C9.65868 6.21622 9.65868 7.02703 8.983 7.56757C8.5776 8.10811 7.76679 8.51351 7.22625 8.51351ZM7.22625 19.1892C4.38841 19.1892 2.49652 17.8378 2.49652 15.9459C2.49652 14.0541 4.25327 13.3784 4.79381 13.2432C5.8749 12.8378 7.36138 12.8378 7.63165 12.8378H8.30733C10.3344 14.3243 11.1452 15 11.1452 16.3514C11.1452 17.973 9.79381 19.1892 7.22625 19.1892ZM16.1452 9.45946H13.4425V8.10811H16.1452V5.54054L17.4965 5.40541V8.10811H20.1992V9.45946H17.4965V12.1622H16.1452V9.45946Z" fill="white"/>
</svg>
