<svg width="21" height="40" viewBox="0 0 21 40" fill="none" xmlns="http://www.w3.org/2000/svg">
<path d="M12.8341 2.98644C12.9823 2.98644 13.0676 2.99267 13.0676 2.99267H16.3206L16.3038 6.7296H13.0726C11.2945 6.7296 11.3356 8.248 11.3356 8.248V14.1723H17.6273L16.7492 17.9042H11.315V36.5802H7.58185L7.57935 17.9042H2.61983L2.60986 14.1723H7.58122V8.36509C7.58177 3.30155 11.7871 2.98644 12.8341 2.98644ZM12.8341 0.495117C11.9385 0.495117 10.1883 0.643388 8.53033 1.64239C6.96081 2.58659 5.09048 4.52041 5.09048 8.36451V11.6804H2.61041C1.94835 11.6804 1.31369 11.9444 0.845329 12.4128C0.61392 12.6452 0.430654 12.9209 0.306041 13.2242C0.181428 13.5276 0.117919 13.8525 0.119158 14.1804L0.129123 17.9124C0.134106 19.2844 1.24833 20.3949 2.62041 20.3949H5.08865L5.09114 36.5796C5.09114 37.9554 6.20666 39.0709 7.58243 39.0709H11.3157C12.6914 39.0709 13.8069 37.9554 13.8069 36.5796V20.3949H16.7498C17.8553 20.3949 18.8287 19.6662 19.1401 18.6056L20.0183 14.8736C20.2394 14.1207 20.0924 13.3066 19.6216 12.6794C19.3899 12.3693 19.089 12.1175 18.7429 11.944C18.3968 11.7706 18.015 11.6803 17.6279 11.6804H13.8274V9.22213L16.3044 9.22089C17.6752 9.22089 18.7894 8.11289 18.7957 6.74081L18.8124 3.13031C18.815 3.08448 18.8162 3.03858 18.8162 2.99267C18.8162 1.61686 17.7032 0.501384 16.3275 0.501384H13.138C13.0664 0.497647 12.963 0.495156 12.8341 0.495117Z" fill="white"/>
</svg>
